<svg width="48" height="48" viewBox="0 0 48 48" fill="none" xmlns="http://www.w3.org/2000/svg">
<path d="M23.9784 0.988281C11.2725 0.988281 1 11.2794 1 23.9853C1 36.6913 11.2911 46.9823 23.9784 46.9823C36.6658 46.9823 46.9755 36.6913 46.9755 23.9853C46.9755 11.2794 36.6844 0.988281 23.9784 0.988281ZM39.9723 31.5829C39.9723 36.2269 36.22 39.9792 31.576 39.9792H16.3809C11.7369 39.9792 7.98455 36.2269 7.98455 31.5829V16.3877C7.98455 11.7438 11.7555 7.99141 16.3809 7.99141H31.576C36.22 7.99141 39.9723 11.7438 39.9723 16.3877V31.5829V31.5829Z" fill="#0075BB"/>
<path d="M26.9138 30.7472C27.0066 30.6357 27.0995 30.5057 27.1738 30.3757L46.4928 3.3291L23.9045 24.2085L14.375 17.0196L21.2853 30.3199C21.3224 30.3942 21.3967 30.45 21.4339 30.5243C21.4524 30.5614 21.4896 30.5986 21.5082 30.6357C21.5825 30.7286 21.6382 30.8215 21.7125 30.9144C21.7868 30.9887 21.8611 31.0444 21.9354 31.1001C22.8085 31.8803 23.9973 32.159 25.0747 31.8803C25.0933 31.8803 25.0933 31.8803 25.1119 31.8803C25.3162 31.8246 25.502 31.7689 25.6878 31.676C25.7249 31.6574 25.7435 31.6388 25.7806 31.6388C25.9478 31.5645 26.0964 31.4716 26.2636 31.3602C26.3193 31.323 26.3565 31.2859 26.4122 31.2487C26.4865 31.193 26.5608 31.1373 26.6351 31.0816C26.6909 31.0258 26.728 30.9701 26.7837 30.9144C26.8023 30.8958 26.8395 30.8772 26.858 30.8401L26.9138 30.7472Z" fill="#0075BB"/>
<path d="M46.4934 3.34766L22.2147 25.0258C22.0103 25.1744 21.8432 25.323 21.6574 25.5088C20.3757 26.9391 20.4871 29.1311 21.9175 30.4128C23.3478 31.6945 25.5398 31.5831 26.8215 30.1527L46.4934 3.34766Z" fill="#0075BB"/>
<path d="M14.3516 17.0381L21.2618 29.6326C21.3918 29.8369 21.5219 30.0412 21.7076 30.227C23.008 31.6388 25.2185 31.7131 26.6117 30.3942C28.0049 29.0939 28.0978 26.8833 26.7789 25.4901L14.3516 17.0381Z" fill="#0075BB"/>
</svg>
