<svg width="48" height="48" viewBox="0 0 48 48" fill="none" xmlns="http://www.w3.org/2000/svg">
<path d="M24 48C37.2548 48 48 37.2548 48 24C48 10.7452 37.2548 0 24 0C10.7452 0 0 10.7452 0 24C0 37.2548 10.7452 48 24 48Z" fill="#1A73E8"/>
<path d="M31.911 36.0001H16.3686C14.487 36.0001 12.8262 34.8673 12.8262 33.0049V34.3681C12.8262 36.2305 14.487 37.6417 16.3686 37.6417H31.911C33.7926 37.6417 35.4534 36.2305 35.4534 34.3681V33.0049C35.4534 34.8673 33.7926 36.0001 31.911 36.0001Z" fill="#185ABC"/>
<path d="M24.0004 21.8209C21.1876 21.8113 18.97 19.8625 18.8164 17.1841V18.2785C18.8164 21.0529 21.1396 23.4625 24.0004 23.4625C26.8612 23.4625 29.1844 21.0529 29.1844 18.2785V17.1841C28.9636 19.8817 26.8132 21.8305 24.0004 21.8209Z" fill="#185ABC"/>
<path d="M24.0004 25.0942C18.5284 25.0942 12.8164 27.763 12.8164 31.363V32.995C12.8164 34.8574 14.3428 36.2686 16.2244 36.2686H32.0356C33.9172 36.2686 35.4436 34.8574 35.4436 32.995V31.363C35.4532 27.7534 29.4724 25.0942 24.0004 25.0942Z" fill="white"/>
<path d="M24.0004 22.0897C26.8635 22.0897 29.1844 19.7687 29.1844 16.9057C29.1844 14.0426 26.8635 11.7217 24.0004 11.7217C21.1374 11.7217 18.8164 14.0426 18.8164 16.9057C18.8164 19.7687 21.1374 22.0897 24.0004 22.0897Z" fill="white"/>
</svg>
