<svg viewBox="0 0 22 24" fill="none" xmlns="http://www.w3.org/2000/svg" id="legaler-logo">
<path d="M21.6505 2.81806C21.6505 2.75591 21.5884 2.66269 21.4641 2.5384C18.1393 0.922632 14.6437 0.114746 10.9771 0.114746C7.31057 0.114746 3.81491 0.922632 0.490146 2.5384C0.459074 2.56948 0.396929 2.66269 0.303711 2.81806V4.1231C0.303711 8.16253 1.23589 11.9223 3.10024 15.4024C4.99566 18.8515 7.55915 21.6636 10.7907 23.8386C10.9461 23.9008 11.0703 23.9008 11.1636 23.8386C14.3951 21.6636 16.9586 18.8515 18.854 15.4024C20.7494 11.9223 21.6972 8.16253 21.6972 4.1231C21.6972 3.53273 21.6816 3.09771 21.6505 2.81806ZM10.7441 18.2456C10.1226 17.6863 9.43904 16.9405 8.6933 16.0084C8.56901 15.853 8.41364 15.8219 8.22721 15.9151C7.51254 16.5055 6.67358 17.0804 5.71033 17.6397C5.58604 17.7018 5.46175 17.6863 5.33746 17.5931C5.21317 17.4998 5.1821 17.3755 5.24425 17.2202C5.77248 15.7598 6.14535 14.2528 6.36286 12.6991C6.36286 12.2952 6.31625 12 6.22303 11.8136C5.38407 9.94921 4.87137 7.92949 4.68494 5.75441C4.68494 5.59905 4.76262 5.4903 4.91798 5.42815C6.81341 4.77563 8.83312 4.44937 10.9771 4.44937C12.9658 4.44937 14.9855 4.77563 17.0363 5.42815C17.1916 5.4903 17.2693 5.59905 17.2693 5.75441C16.8343 10.726 14.8146 14.8897 11.2102 18.2456C11.0548 18.4009 10.8994 18.4009 10.7441 18.2456Z" fill="#05B6D4"/>
</svg>
