<svg width="102" height="102" viewBox="0 0 102 102" fill="none" xmlns="http://www.w3.org/2000/svg">
<g clip-path="url(#clip0_16625_94893)">
<path d="M21.4495 64.2759C21.4495 70.1855 16.6734 74.962 10.7638 74.962C4.8542 74.962 0.078125 70.1855 0.078125 64.2759C0.078125 58.3666 4.8542 53.5906 10.7642 53.5906H21.4491V64.2763L21.4495 64.2759ZM26.7926 64.2759C26.7926 58.3666 31.5686 53.5906 37.4783 53.5906C43.3879 53.5906 48.164 58.3666 48.164 64.2763V90.9903C48.164 96.8999 43.3879 101.676 37.4779 101.676C31.569 101.676 26.7926 96.8999 26.7926 90.9903V64.2759Z" fill="#E01E5A"/>
<path d="M37.481 21.3714C31.5714 21.3714 26.7949 16.5953 26.7949 10.6857C26.7949 4.77607 31.5718 0 37.481 0C43.3902 0 48.1667 4.77607 48.1667 10.6857V21.3718H37.4806L37.481 21.3714ZM37.481 26.7953C43.3906 26.7953 48.1667 31.5714 48.1667 37.481C48.1667 43.3906 43.3906 48.1667 37.4806 48.1667H10.6861C4.77607 48.1667 0 43.3906 0 37.4806C0 31.5718 4.77607 26.7953 10.6857 26.7953H37.481Z" fill="#36C5F0"/>
<path d="M80.3082 37.481C80.3082 31.5714 85.0843 26.7949 90.9935 26.7949C96.9031 26.7949 101.68 31.5714 101.68 37.481C101.68 43.3906 96.9031 48.1667 90.9935 48.1667H80.3082V37.481ZM74.9651 37.481C74.9651 43.3906 70.1887 48.1667 64.279 48.1667C58.3698 48.1667 53.5938 43.3906 53.5938 37.4806V10.6861C53.5938 4.77607 58.3698 0 64.279 0C70.1883 0 74.9647 4.77607 74.9647 10.6857V37.4806L74.9651 37.481Z" fill="#2EB67D"/>
<path d="M64.279 80.3051C70.1887 80.3051 74.9651 85.0812 74.9651 90.9904C74.9651 96.9001 70.1887 101.677 64.279 101.677C58.3698 101.677 53.5938 96.9001 53.5938 90.9904V80.3051H64.279ZM64.279 74.9621C58.3698 74.9621 53.5938 70.1856 53.5938 64.276C53.5938 58.3668 58.3698 53.5907 64.2794 53.5907H91.0744C96.984 53.5907 101.76 58.3668 101.76 64.2764C101.76 70.1856 96.984 74.9621 91.0744 74.9621H64.279Z" fill="#ECB22E"/>
</g>
<defs>
<clipPath id="clip0_16625_94893">
<rect width="102" height="102" fill="white"/>
</clipPath>
</defs>
</svg>
