<svg width="48" height="48" viewBox="0 0 48 48" fill="none" xmlns="http://www.w3.org/2000/svg">
<g clip-path="url(#clip0_7481_110250)">
<path d="M4.31373 22.1756C4.31373 21.6808 4.72099 21.4905 5.39565 21.4905C6.36284 21.4905 7.58463 21.7823 8.55191 22.3025V19.3211C7.49559 18.9024 6.45197 18.7375 5.39565 18.7375C2.81193 18.7375 1.09375 20.0823 1.09375 22.3279C1.09375 25.8293 5.93007 25.2712 5.93007 26.7809C5.93007 27.3644 5.42106 27.5548 4.70829 27.5548C3.65196 27.5548 2.30283 27.1234 1.23371 26.5398V29.5593C2.41738 30.0667 3.61375 30.2823 4.70829 30.2823C7.35554 30.2823 9.17556 28.9757 9.17556 26.7048C9.16285 22.9241 4.31373 23.5965 4.31373 22.1756V22.1756ZM12.9173 16.2002L9.81191 16.8598L9.7992 27.0219C9.7992 28.8996 11.212 30.2823 13.0956 30.2823C14.1392 30.2823 14.9028 30.0921 15.3228 29.8637V27.2883C14.9156 27.4533 12.9046 28.0368 12.9046 26.1592V21.6554H15.3228V18.9532H12.9046L12.9173 16.2002V16.2002ZM19.2811 19.892L19.0774 18.9532H16.3283V30.054H19.5102V22.5309C20.261 21.554 21.5338 21.7316 21.9283 21.8711V18.9532C21.5211 18.8009 20.032 18.5218 19.2811 19.892V19.892ZM22.7046 18.9532H25.8992V30.054H22.7046V18.9532V18.9532ZM22.7046 17.989L25.8992 17.3039V14.7285L22.7046 15.4009V17.9889V17.989ZM32.5428 18.7375C31.2955 18.7375 30.4937 19.3211 30.0483 19.7271L29.8828 18.9405H27.0829V33.7331L30.2646 33.0608L30.2774 29.4704C30.7356 29.8003 31.4101 30.2697 32.5301 30.2697C34.8083 30.2697 36.8828 28.4428 36.8828 24.4212C36.8701 20.742 34.7701 18.7375 32.5428 18.7375V18.7375ZM31.7792 27.4786C31.0283 27.4786 30.5828 27.2122 30.2774 26.8824L30.2646 22.1756C30.5956 21.8077 31.0537 21.554 31.7792 21.554C32.9374 21.554 33.7392 22.848 33.7392 24.5099C33.7392 26.2099 32.9501 27.4786 31.7792 27.4786V27.4786ZM46.9119 24.548C46.9119 21.3002 45.3337 18.7375 42.3174 18.7375C39.2882 18.7375 37.4555 21.3003 37.4555 24.5227C37.4555 28.3413 39.6192 30.2697 42.7246 30.2697C44.2392 30.2697 45.3846 29.9271 46.2501 29.4451V26.9077C45.3847 27.3391 44.3919 27.6055 43.1319 27.6055C41.8973 27.6055 40.8028 27.1741 40.6628 25.6771H46.8865C46.8865 25.5121 46.9119 24.8525 46.9119 24.548ZM40.6246 23.3428C40.6246 21.9092 41.5029 21.3129 42.3047 21.3129C43.081 21.3129 43.9083 21.9092 43.9083 23.3428H40.6246Z" fill="#6772E5"/>
</g>
<defs>
<clipPath id="clip0_7481_110250">
<rect width="45.8182" height="19.0909" fill="white" transform="translate(1.09375 14.7275)"/>
</clipPath>
</defs>
</svg>
