<svg width="102" height="102" viewBox="0 0 102 102" fill="none" xmlns="http://www.w3.org/2000/svg">
<g clip-path="url(#clip0_16618_93683)">
<path d="M63.75 51.0159C63.7523 54.6961 63.0881 58.3462 61.7897 61.7897C58.3463 63.0883 54.6961 63.7525 51.0159 63.75H50.9809C47.3007 63.7523 43.6506 63.0881 40.2071 61.7897C38.9098 58.3459 38.2457 54.696 38.2468 51.0159V50.9809C38.2468 47.1814 38.9449 43.5604 40.2071 40.2071C43.6506 38.9087 47.3007 38.2445 50.9809 38.2468H51.0159C54.8154 38.2468 58.4524 38.9449 61.7897 40.2071C63.0881 43.6506 63.7523 47.3007 63.75 50.9809V51.0159ZM101.302 42.4989H71.5179L92.5522 21.4487C90.9055 19.1304 89.0673 16.9542 87.057 14.943C85.0467 12.9269 82.8705 11.0833 80.5513 9.43181L59.5011 30.4661V0.698062C56.6963 0.24416 53.8603 0.0107575 51.0191 0L50.9681 0C48.0771 0 45.2561 0.264562 42.5021 0.698062V30.4821L21.4678 9.44775C19.1321 11.0796 16.9483 12.9188 14.943 14.943C12.9215 16.9483 11.0776 19.125 9.43181 21.4487L30.4661 42.4989H0.698062C0.698062 42.4989 0 48.093 0 50.9809V51.0159C0 53.907 0.264562 56.7439 0.698062 59.4979H30.4821L9.44775 80.5322C12.7368 85.1955 16.795 89.2655 21.4487 92.5682L42.4989 71.5339V101.302C45.2529 101.748 48.0739 102 50.9649 102H51.0319C53.9229 102 56.7439 101.748 59.4979 101.302V71.5339L80.5322 92.5682C82.875 90.9744 85.0489 89.1161 87.0379 87.0889H87.0538C89.0844 85.092 90.9291 82.9144 92.565 80.5832L71.5307 59.5489H101.299C101.745 56.8076 101.997 54.0026 101.997 51.1307V51C101.997 48.1089 101.745 45.288 101.299 42.5499L101.302 42.4989Z" fill="#FF4F00"/>
</g>
<defs>
<clipPath id="clip0_16618_93683">
<rect width="102" height="102" fill="white"/>
</clipPath>
</defs>
</svg>
