<svg width="28" height="30" viewBox="0 0 28 30" fill="none" xmlns="http://www.w3.org/2000/svg">
<path d="M27.4412 3.41176C27.4412 3.33333 27.3627 3.21569 27.2059 3.05882C23.0098 1.01961 18.598 0 13.9706 0C9.34314 0 4.93137 1.01961 0.735294 3.05882C0.696078 3.09804 0.617647 3.21569 0.5 3.41176V5.05882C0.5 10.1569 1.67647 14.902 4.02941 19.2941C6.42157 23.6471 9.65686 27.1961 13.7353 29.9412C13.9314 30.0196 14.0882 30.0196 14.2059 29.9412C18.2843 27.1961 21.5196 23.6471 23.9118 19.2941C26.3039 14.902 27.5 10.1569 27.5 5.05882C27.5 4.31373 27.4804 3.76471 27.4412 3.41176ZM13.6765 22.8824C12.8922 22.1765 12.0294 21.2353 11.0882 20.0588C10.9314 19.8627 10.7353 19.8235 10.5 19.9412C9.59804 20.6863 8.53922 21.4118 7.32353 22.1176C7.16667 22.1961 7.0098 22.1765 6.85294 22.0588C6.69608 21.9412 6.65686 21.7843 6.73529 21.5882C7.40196 19.7451 7.87255 17.8431 8.14706 15.8824C8.14706 15.3725 8.08824 15 7.97059 14.7647C6.91176 12.4118 6.26471 9.86275 6.02941 7.11765C6.02941 6.92157 6.12745 6.78431 6.32353 6.70588C8.71569 5.88235 11.2647 5.47059 13.9706 5.47059C16.4804 5.47059 19.0294 5.88235 21.6176 6.70588C21.8137 6.78431 21.9118 6.92157 21.9118 7.11765C21.3627 13.3922 18.8137 18.6471 14.2647 22.8824C14.0686 23.0784 13.8725 23.0784 13.6765 22.8824Z" fill="#039DF4"/>
</svg>
