<svg width="1640" height="448" viewBox="0 0 1640 448" fill="none" xmlns="http://www.w3.org/2000/svg">
<g clip-path="url(#clip0_18053_73037)">
<rect width="1640" height="448" fill="#B7B7B7"/>
<g filter="url(#filter0_b_18053_73037)">
<path d="M305.332 196.301C305.573 195.884 305.523 195.02 305.182 193.711C289.441 170.156 269.436 151.373 245.168 137.362C220.901 123.351 194.632 115.418 166.362 113.563C166.036 113.653 165.263 114.041 164.044 114.728L158.984 123.491C143.324 150.616 134.917 179.425 133.765 209.918C132.939 240.322 139.003 269 151.96 295.955C152.747 296.966 153.57 297.441 154.427 297.379C184.249 295.123 212.118 286.036 238.034 270.118C264.072 253.992 284.921 232.367 300.581 205.242C302.87 201.278 304.454 198.298 305.332 196.301ZM173.335 258.219C171.39 252.089 169.757 244.469 168.435 235.36C168.214 233.842 167.306 233.039 165.711 232.953C158.692 234.186 150.911 234.84 142.367 234.915C141.303 234.857 140.541 234.278 140.08 233.177C139.618 232.076 139.895 231.123 140.908 230.317C150.066 222.529 158.377 213.834 165.84 204.233C167.406 201.521 168.242 199.36 168.347 197.752C170.023 182.027 174.459 166.506 181.658 151.188C182.26 150.144 183.196 149.711 184.465 149.887C199.54 152.749 214.173 158.276 228.364 166.469C241.526 174.068 253.629 183.977 264.673 196.195C265.46 197.206 265.552 198.233 264.95 199.276C242.797 230.998 213.286 251.24 176.42 260C174.789 260.45 173.761 259.856 173.335 258.219Z" fill="white" fill-opacity="0.15"/>
<path d="M305.666 193.585L305.645 193.503L305.598 193.433C289.814 169.815 269.753 150.979 245.418 136.929C221.083 122.879 194.74 114.924 166.395 113.064L166.31 113.058L166.229 113.081C166.013 113.14 165.697 113.282 165.313 113.475C164.917 113.674 164.411 113.947 163.798 114.292L163.679 114.36L163.611 114.478L158.551 123.241C142.851 150.435 134.421 179.323 133.265 209.899L133.265 209.905C132.437 240.386 138.518 269.144 151.509 296.171L151.532 296.22L151.565 296.262C152.402 297.336 153.368 297.956 154.463 297.878L154.465 297.878C184.367 295.615 212.313 286.503 238.296 270.544L238.298 270.543C264.407 254.373 285.313 232.687 301.014 205.492C303.296 201.54 304.888 198.547 305.78 196.524C305.962 196.191 306.001 195.761 305.975 195.312C305.947 194.834 305.841 194.256 305.666 193.585ZM173.819 258.093L173.815 258.081L173.811 258.068C171.877 251.972 170.249 244.381 168.929 235.288C168.807 234.444 168.484 233.743 167.92 233.245C167.358 232.748 166.612 232.501 165.738 232.453L165.681 232.45L165.625 232.46C158.642 233.687 150.894 234.34 142.379 234.415C141.942 234.389 141.589 234.259 141.3 234.039C141.004 233.814 140.746 233.473 140.541 232.984C140.345 232.517 140.321 232.122 140.421 231.776C140.523 231.425 140.769 231.067 141.219 230.709L141.226 230.703L141.232 230.698C150.417 222.888 158.751 214.168 166.234 204.54L166.255 204.513L166.273 204.483C167.844 201.761 168.729 199.521 168.846 197.795C170.515 182.14 174.932 166.682 182.101 151.42C182.358 150.982 182.667 150.698 183.022 150.534C183.381 150.367 183.827 150.305 184.384 150.381C199.396 153.232 213.972 158.737 228.114 166.902C241.222 174.47 253.281 184.34 264.289 196.516C264.631 196.959 264.799 197.375 264.834 197.769C264.87 198.158 264.778 198.567 264.527 199.008C242.444 230.622 213.042 250.784 176.304 259.514L176.295 259.516L176.287 259.518C175.545 259.723 175.032 259.665 174.675 259.459C174.319 259.253 174.012 258.838 173.819 258.093Z" stroke="url(#paint0_linear_18053_73037)"/>
</g>
<line opacity="0.5" x1="96.603" y1="447.696" x2="439.603" y2="-0.303959" stroke="white"/>
<line opacity="0.5" x1="199.516" y1="447.873" x2="317.516" y2="-0.127347" stroke="white"/>
<line opacity="0.5" x1="317.76" y1="453.562" x2="1145.76" y2="-0.438413" stroke="white"/>
<line opacity="0.5" x1="439.59" y1="448.286" x2="126.59" y2="0.286392" stroke="white"/>
<line opacity="0.5" x1="0.243264" y1="250.563" x2="353.318" y2="447.184" stroke="white"/>
<line opacity="0.5" x1="-0.155548" y1="181.525" x2="555.844" y2="-0.47519" stroke="white"/>
<line opacity="0.5" x1="160.547" y1="448.211" x2="-0.453096" y2="103.211" stroke="white"/>
</g>
<defs>
<filter id="filter0_b_18053_73037" x="52.6906" y="32.5537" width="333.791" height="345.831" filterUnits="userSpaceOnUse" color-interpolation-filters="sRGB">
<feFlood flood-opacity="0" result="BackgroundImageFix"/>
<feGaussianBlur in="BackgroundImageFix" stdDeviation="40"/>
<feComposite in2="SourceAlpha" operator="in" result="effect1_backgroundBlur_18053_73037"/>
<feBlend mode="normal" in="SourceGraphic" in2="effect1_backgroundBlur_18053_73037" result="shape"/>
</filter>
<linearGradient id="paint0_linear_18053_73037" x1="197.072" y1="103.151" x2="207.968" y2="292.248" gradientUnits="userSpaceOnUse">
<stop stop-color="white" stop-opacity="0.62"/>
<stop offset="1" stop-color="white" stop-opacity="0"/>
</linearGradient>
<clipPath id="clip0_18053_73037">
<rect width="1640" height="448" fill="white"/>
</clipPath>
</defs>
</svg>
