<svg width="1640" height="448" viewBox="0 0 1640 448" fill="none" xmlns="http://www.w3.org/2000/svg">
<g clip-path="url(#clip0_18053_73063)">
<rect width="1640" height="448" fill="#B7B7B7"/>
<circle opacity="0.15" cx="51" cy="417" r="95" fill="white"/>
<circle opacity="0.15" cx="93.5" cy="253.5" r="42.5" fill="white"/>
<circle opacity="0.15" cx="401" cy="24" r="88" fill="white"/>
<circle opacity="0.15" cx="136" cy="24" r="67" fill="white"/>
<circle opacity="0.15" cx="464" cy="114" r="51" fill="white"/>
<g filter="url(#filter0_b_18053_73063)">
<path d="M394.139 22.485L393.92 22.357L393.672 22.3077C332.496 10.1807 272.094 12.102 212.484 28.0744C152.874 44.0468 99.6037 72.584 52.687 113.674L52.4966 113.841L52.3714 114.061C52.1059 114.528 51.8251 115.271 51.5291 116.164C51.2202 117.095 50.8571 118.309 50.4407 119.796L50.33 120.192L50.4363 120.589L56.174 142.002C73.9951 208.511 105.74 266.375 151.408 315.571L151.413 315.576L151.419 315.582C197.443 364.119 251.528 399.268 313.66 421.013L313.812 421.066L313.971 421.086C316.999 421.46 319.624 420.925 321.328 418.962L321.332 418.957C364.267 369.06 393.532 311.577 409.122 246.531L409.123 246.525C424.58 180.95 423.393 114.895 405.571 48.3815C402.985 38.7316 400.812 31.6167 399.053 27.0792C398.782 26.1779 398.11 25.3959 397.359 24.7282C396.548 24.0069 395.462 23.2602 394.139 22.485ZM289.569 326.733L289.535 326.713L289.5 326.695C277.072 320.265 262.792 311.045 246.655 299.016C245.1 297.857 243.421 297.228 241.654 297.338C239.897 297.447 238.275 298.273 236.799 299.595L236.671 299.71L236.573 299.85C227.657 312.548 216.663 325.546 203.583 338.844C202.921 339.427 202.248 339.732 201.548 339.828C200.826 339.927 199.968 339.816 198.941 339.396C197.98 339.004 197.41 338.484 197.083 337.89C196.748 337.283 196.577 336.436 196.714 335.242L196.717 335.218L196.719 335.193C198.863 308.834 198.274 282.385 194.953 255.848L194.94 255.746L194.914 255.646C193.129 248.985 191.012 244.072 188.455 241.145C166.804 214.356 149.713 183.618 137.189 148.92C136.931 147.919 136.975 147.091 137.236 146.381C137.503 145.657 138.041 144.93 138.971 144.221C166.646 125.4 197.757 111.356 232.318 102.095C264.347 93.513 298.317 90.1129 334.238 91.9058C335.389 92.0559 336.214 92.4156 336.804 92.9073C337.385 93.3916 337.837 94.086 338.114 95.0815C352.843 178.164 338.499 254.851 295.083 325.217L295.069 325.24L295.056 325.263C294.253 326.676 293.441 327.283 292.709 327.479C291.978 327.675 290.971 327.555 289.569 326.733Z" stroke="url(#paint0_linear_18053_73063)" stroke-width="3"/>
</g>
</g>
<defs>
<filter id="filter0_b_18053_73063" x="-31.2252" y="-67.0435" width="532.615" height="569.74" filterUnits="userSpaceOnUse" color-interpolation-filters="sRGB">
<feFlood flood-opacity="0" result="BackgroundImageFix"/>
<feGaussianBlur in="BackgroundImageFix" stdDeviation="40"/>
<feComposite in2="SourceAlpha" operator="in" result="effect1_backgroundBlur_18053_73063"/>
<feBlend mode="normal" in="SourceGraphic" in2="effect1_backgroundBlur_18053_73063" result="shape"/>
</filter>
<linearGradient id="paint0_linear_18053_73063" x1="85.1854" y1="51.0829" x2="394.952" y2="327.467" gradientUnits="userSpaceOnUse">
<stop stop-color="white" stop-opacity="0.62"/>
<stop offset="1" stop-color="white" stop-opacity="0"/>
</linearGradient>
<clipPath id="clip0_18053_73063">
<rect width="1640" height="448" fill="white"/>
</clipPath>
</defs>
</svg>
