<svg width="1640" height="448" viewBox="0 0 1640 448" fill="none" xmlns="http://www.w3.org/2000/svg">
<g clip-path="url(#clip0_18053_73022)">
<rect width="1640" height="448" fill="#B7B7B7"/>
<g opacity="0.3">
<g opacity="0.9">
<path d="M501.245 108.671C501.236 108.138 500.697 107.347 499.627 106.299C471.265 92.9149 441.576 86.488 410.559 87.0183C379.543 87.5485 350.09 94.9863 322.202 109.332C321.944 109.603 321.432 110.412 320.666 111.758L320.858 122.957C321.45 157.618 329.887 189.746 346.169 219.338C362.709 248.66 384.806 272.419 412.462 290.615C413.785 291.126 414.837 291.108 415.616 290.562C442.634 271.43 463.907 246.93 479.435 217.06C494.958 186.924 502.424 154.525 501.831 119.863C501.744 114.797 501.549 111.067 501.245 108.671ZM411.247 242.629C405.908 237.92 400.016 231.62 393.571 223.729C392.497 222.413 391.178 222.169 389.615 222.996C383.656 228.165 376.643 233.219 368.577 238.158C367.534 238.709 366.481 238.594 365.415 237.812C364.35 237.03 364.069 235.968 364.572 234.626C368.826 222.018 371.76 209.033 373.372 195.67C373.312 192.204 372.875 189.677 372.059 188.091C364.688 172.215 360.055 154.958 358.159 136.321C358.136 134.988 358.777 134.044 360.082 133.488C376.021 127.615 393.058 124.523 411.195 124.213C428.018 123.925 445.151 126.433 462.595 131.735C463.918 132.246 464.591 133.168 464.614 134.501C461.663 177.225 445.189 213.245 415.19 242.562C413.899 243.917 412.584 243.94 411.247 242.629Z" fill="white"/>
</g>
<g opacity="0.9">
<path d="M100.62 171.449C100.407 171.235 99.8758 171.126 99.0275 171.12C82.2089 176.832 67.5879 185.899 55.1646 198.322C42.7412 210.746 33.6736 225.367 27.9617 242.185C27.9632 242.397 28.073 242.928 28.2912 243.778L32.7766 248.264C46.6599 262.147 62.7406 271.911 81.0186 277.555C99.295 282.987 117.646 283.966 136.071 280.492C136.811 280.179 137.232 279.758 137.334 279.229C140.808 260.804 139.829 242.453 134.397 224.176C128.858 205.793 119.147 189.66 105.264 175.777C103.235 173.747 101.687 172.305 100.62 171.449ZM116.69 261.427C112.662 261.61 107.783 261.363 102.052 260.686C101.097 260.574 100.464 260.993 100.152 261.945C99.7599 266.396 98.893 271.214 97.5515 276.4C97.344 277.035 96.8695 277.403 96.128 277.503C95.3864 277.604 94.854 277.282 94.5306 276.538C91.301 269.729 87.3848 263.286 82.7821 257.209C81.3937 255.821 80.2213 254.964 79.2646 254.639C70.0143 251.074 61.3355 245.869 53.2281 239.025C52.6942 238.492 52.5836 237.855 52.8964 237.115C57.076 228.45 62.798 220.485 70.0625 213.22C76.8006 206.482 84.7653 200.76 93.9566 196.054C94.6966 195.741 95.3336 195.852 95.8676 196.386C111.481 214.947 118.948 236.101 118.269 259.848C118.277 260.908 117.75 261.435 116.69 261.427Z" fill="white"/>
</g>
<g opacity="0.9">
<path d="M582.008 399.487C581.941 399.604 581.955 399.844 582.05 400.209C586.439 406.777 592.017 412.014 598.784 415.92C605.55 419.827 612.875 422.039 620.757 422.557C620.848 422.532 621.063 422.424 621.403 422.232L622.814 419.789C627.179 412.227 629.523 404.196 629.843 395.695C630.073 387.218 628.382 379.223 624.769 371.708C624.549 371.426 624.32 371.294 624.08 371.311C615.766 371.939 607.996 374.472 600.77 378.909C593.511 383.404 587.698 389.433 583.332 396.995C582.694 398.1 582.253 398.931 582.008 399.487ZM618.81 382.228C619.352 383.937 619.808 386.061 620.176 388.601C620.238 389.024 620.491 389.248 620.936 389.272C622.893 388.928 625.062 388.746 627.444 388.725C627.741 388.742 627.954 388.903 628.082 389.21C628.211 389.517 628.134 389.783 627.851 390.007C625.298 392.178 622.981 394.602 620.901 397.279C620.464 398.035 620.231 398.637 620.201 399.086C619.735 403.47 618.498 407.797 616.491 412.067C616.323 412.358 616.062 412.479 615.709 412.43C611.505 411.632 607.425 410.09 603.469 407.806C599.799 405.687 596.424 402.924 593.344 399.518C593.125 399.236 593.099 398.949 593.267 398.659C599.443 389.815 607.671 384.173 617.949 381.731C618.404 381.606 618.691 381.771 618.81 382.228Z" fill="white"/>
</g>
<circle opacity="0.4" cx="413" cy="309" r="220.5" stroke="white" stroke-width="3"/>
<circle opacity="0.4" cx="275" cy="110" r="220.5" stroke="white" stroke-width="3"/>
<circle opacity="0.4" cx="544" cy="110" r="220.5" stroke="white" stroke-width="3"/>
<g opacity="0.9">
<path d="M783.125 27.8386C783.074 27.6241 782.786 27.3526 782.26 27.0244C769.612 24.1446 757.047 24.1932 744.566 27.1701C732.085 30.147 720.851 35.7748 710.864 44.0533C710.784 44.1858 710.649 44.5582 710.46 45.1703L711.535 49.6765C714.861 63.6244 721.131 75.8499 730.343 86.3529C739.636 96.7233 750.678 104.352 763.47 109.239C764.05 109.327 764.473 109.226 764.739 108.936C773.948 98.8017 780.358 87.0105 783.97 73.5622C787.556 60.0067 787.685 46.255 784.359 32.3071C783.872 30.2685 783.461 28.779 783.125 27.8386ZM758.705 89.9639C756.129 88.5372 753.188 86.5173 749.881 83.904C749.33 83.4684 748.776 83.4873 748.218 83.9605C746.271 86.5793 743.889 89.2454 741.071 91.9587C740.699 92.2742 740.263 92.3214 739.763 92.1005C739.263 91.8795 739.055 91.4756 739.139 90.8887C739.734 85.4171 739.762 79.9107 739.223 74.3695C738.89 72.9748 738.489 71.9933 738.018 71.4253C733.627 65.6689 730.218 59.1112 727.792 51.7522C727.664 51.2157 727.839 50.7772 728.317 50.4364C734.231 46.6444 740.838 43.878 748.136 42.1373C754.905 40.5227 762.049 40.0094 769.568 40.5975C770.148 40.6859 770.502 40.9984 770.63 41.5348C773.243 59.0547 769.797 75.0716 760.291 89.5855C759.891 90.2481 759.362 90.3743 758.705 89.9639Z" fill="white"/>
</g>
</g>
</g>
<defs>
<clipPath id="clip0_18053_73022">
<rect width="1640" height="448" fill="white"/>
</clipPath>
</defs>
</svg>
