<svg width="1640" height="448" viewBox="0 0 1640 448" fill="none" xmlns="http://www.w3.org/2000/svg">
<g clip-path="url(#clip0_28007_188034)">
<rect width="1640" height="448" fill="#B7B7B7"/>
<g opacity="0.7">
<path opacity="0.1" d="M330 267.282C330 348.559 226.579 540 146.911 540C67.2434 540 -131 443.753 -131 362.476C-131 281.199 67.2434 169 146.911 169C226.579 169 330 186.005 330 267.282Z" fill="white"/>
<path opacity="0.2" d="M381.679 14.7168C381.349 13.4876 379.643 11.9685 376.56 10.1595C303.15 -4.42599 230.688 -2.1378 159.175 17.024C87.6624 36.1859 23.7647 70.4351 -32.5179 119.772C-32.9592 120.549 -33.6772 122.717 -34.6719 126.278L-27.7549 152.092C-6.34506 231.995 31.7638 301.494 86.5717 360.59C141.821 418.909 206.724 461.136 281.281 487.272C284.64 487.689 287.064 487.04 288.553 485.323C340.053 425.411 375.147 356.389 393.835 278.259C412.358 199.514 410.915 120.19 389.505 40.2879C386.376 28.6099 383.767 20.0862 381.679 14.7168ZM250.727 376.881C235.642 369.066 218.356 357.887 198.871 343.345C195.623 340.922 192.428 341.119 189.286 343.937C178.476 359.35 165.16 375.105 149.337 391.203C147.242 393.082 144.736 393.424 141.817 392.23C138.899 391.035 137.634 388.739 138.023 385.341C140.585 353.693 139.87 321.934 135.878 290.066C133.737 282.076 131.263 276.48 128.457 273.279C102.212 240.786 81.5079 203.514 66.3433 161.464C65.5198 158.391 66.4585 155.834 69.1593 153.792C102.669 130.979 140.333 113.97 182.15 102.766C220.936 92.3727 262.058 88.2712 305.516 90.4609C308.875 90.8782 310.967 92.6234 311.79 95.6966C329.656 196.312 312.332 289.228 259.818 374.446C257.611 378.331 254.581 379.143 250.727 376.881Z" fill="white"/>
<path opacity="0.1" d="M335.941 39.9139C297.532 65.1962 174.968 75.988 150.244 38.4279C125.521 0.867805 109.483 -122.535 147.892 -147.817C186.301 -173.099 300.844 -114.537 325.567 -76.9764C350.291 -39.4163 374.35 14.6317 335.941 39.9139Z" fill="white"/>
<path opacity="0.1" d="M571 132.286C571 154.85 542.733 208 520.958 208C499.184 208 445 181.279 445 158.714C445 136.15 499.184 105 520.958 105C542.733 105 571 109.721 571 132.286Z" fill="white"/>
<path opacity="0.1" d="M462.344 278C452.705 278 430 266.11 430 256.951C430 247.792 441.415 225 451.054 225C460.693 225 474 247.792 474 256.951C474 266.11 471.983 278 462.344 278Z" fill="white"/>
</g>
</g>
<defs>
<clipPath id="clip0_28007_188034">
<rect width="1640" height="448" fill="white"/>
</clipPath>
</defs>
</svg>
