<svg width="1640" height="448" viewBox="0 0 1640 448" fill="none" xmlns="http://www.w3.org/2000/svg">
<g clip-path="url(#clip0_18053_73008)">
<rect width="1640" height="448" fill="black" fill-opacity="0.2"/>
<g opacity="0.3">
<g opacity="0.6">
<path d="M459.401 -134.705V-134.617L459.413 -134.508C459.891 -130.146 460.138 -123.274 460.138 -113.835C460.138 -49.4971 445.233 10.3612 415.427 65.7717C385.611 120.703 345.3 165.474 294.481 200.108C293.815 200.557 292.686 200.772 290.649 199.987C239.915 165.37 199.663 120.642 169.882 65.7761C140.566 10.3658 125.906 -49.4943 125.906 -113.835V-134.176C126.51 -135.185 127.013 -135.995 127.419 -136.611C127.733 -137.088 127.957 -137.4 128.102 -137.588C180.286 -163.199 235.129 -176 292.653 -176C350.199 -176 405.062 -163.19 457.263 -137.559C458.073 -136.721 458.636 -136.034 458.994 -135.492C459.355 -134.942 459.396 -134.704 459.401 -134.704C459.401 -134.704 459.401 -134.705 459.401 -134.705ZM210.288 104.318L210.344 104.289L210.399 104.258C225.622 95.3079 238.917 86.0958 250.275 76.6169C251.377 76.0944 252.205 76.0146 252.833 76.1418C253.485 76.2739 254.208 76.6866 254.977 77.6598C266.793 92.6154 277.663 104.631 287.585 113.677C289.02 115.117 290.716 116.098 292.653 116.098C294.596 116.098 296.297 115.112 297.734 113.665C355.07 59.6053 387.208 -7.49864 394.126 -87.5498L394.133 -87.6357V-87.722C394.133 -89.3072 393.737 -90.7842 392.846 -92.0458C391.963 -93.2983 390.697 -94.1921 389.2 -94.7984L389.132 -94.8259L389.062 -94.8483C356.457 -105.352 324.319 -110.613 292.653 -110.613C258.548 -110.613 226.392 -105.357 196.2 -94.8332L196.153 -94.817L196.107 -94.7984C194.61 -94.1921 193.344 -93.2983 192.46 -92.0458C191.57 -90.7842 191.173 -89.3072 191.173 -87.722V-87.6375L191.181 -87.5533C194.146 -52.5286 202.302 -19.9784 215.663 10.0832L215.68 10.1202L215.698 10.1565C216.95 12.6934 217.691 16.9889 217.701 23.3099C214.28 47.9865 208.427 71.921 200.143 95.1159C199.555 96.6185 199.337 98.1607 199.706 99.6554C200.082 101.18 201.011 102.416 202.28 103.38C203.475 104.287 204.78 104.899 206.186 105.077C207.609 105.257 208.991 104.974 210.288 104.318Z" stroke="url(#paint0_linear_18053_73008)" stroke-width="4"/>
<path d="M126.643 589.053L126.643 588.964L126.631 588.855C126.152 584.493 125.906 577.621 125.906 568.183C125.906 503.844 140.811 443.986 170.617 388.575C200.433 333.644 240.744 288.874 291.563 254.24C292.229 253.791 293.358 253.575 295.395 254.36C346.129 288.977 386.38 333.705 416.161 388.571C445.477 443.981 460.138 503.841 460.138 568.183L460.138 588.523C459.534 589.533 459.031 590.342 458.625 590.958C458.311 591.435 458.087 591.747 457.942 591.935C405.758 617.546 350.915 630.347 293.39 630.347C235.844 630.347 180.982 617.537 128.781 591.907C127.971 591.068 127.407 590.381 127.05 589.839C126.688 589.29 126.647 589.051 126.643 589.051C126.643 589.051 126.643 589.052 126.643 589.053ZM375.755 350.029L375.699 350.058L375.645 350.09C360.422 359.039 347.126 368.251 335.769 377.73C334.666 378.253 333.839 378.333 333.211 378.205C332.558 378.073 331.836 377.661 331.067 376.687C319.25 361.732 308.381 349.716 298.459 340.67C297.024 339.23 295.328 338.249 293.39 338.249C291.447 338.249 289.747 339.236 288.309 340.682C230.973 394.742 198.836 461.846 191.918 541.897L191.91 541.983L191.91 542.069C191.91 543.654 192.307 545.131 193.197 546.393C194.081 547.645 195.347 548.539 196.844 549.146L196.912 549.173L196.981 549.195C229.586 559.699 261.725 564.96 293.39 564.96C327.496 564.96 359.652 559.704 389.844 549.18L389.891 549.164L389.936 549.146C391.434 548.539 392.7 547.645 393.583 546.393C394.473 545.131 394.87 543.654 394.87 542.069L394.87 541.985L394.863 541.9C391.898 506.876 383.741 474.326 370.38 444.264L370.364 444.227L370.346 444.191C369.093 441.654 368.353 437.358 368.342 431.037C371.764 406.361 377.617 382.426 385.9 359.231C386.488 357.729 386.707 356.186 386.338 354.692C385.961 353.168 385.033 351.931 383.763 350.967C382.569 350.06 381.264 349.448 379.857 349.27C378.435 349.09 377.053 349.373 375.755 350.029Z" stroke="url(#paint1_linear_18053_73008)" stroke-width="4"/>
<path d="M-121.705 57.2712L-121.617 57.2712L-121.508 57.2593C-117.146 56.7806 -110.274 56.5343 -100.835 56.5343C-36.4971 56.5343 23.3612 71.439 78.7717 101.245C133.703 131.061 178.474 171.372 213.108 222.191C213.557 222.857 213.772 223.986 212.987 226.023C178.37 276.757 133.642 317.009 78.7761 346.79C23.3658 376.106 -36.4943 390.766 -100.835 390.766L-121.176 390.766C-122.185 390.162 -122.995 389.659 -123.611 389.253C-124.088 388.939 -124.4 388.715 -124.588 388.57C-150.199 336.387 -163 281.543 -163 224.019C-163 166.473 -150.19 111.61 -124.559 59.4092C-123.721 58.5994 -123.034 58.0358 -122.492 57.6785C-121.942 57.3169 -121.704 57.2758 -121.704 57.2715C-121.704 57.2714 -121.705 57.2713 -121.705 57.2712ZM117.318 306.384L117.289 306.328L117.258 306.273C108.308 291.051 99.0958 277.755 89.6169 266.397C89.0944 265.295 89.0146 264.467 89.1418 263.839C89.2739 263.187 89.6866 262.464 90.6598 261.695C105.615 249.879 117.631 239.009 126.677 229.087C128.117 227.652 129.098 225.956 129.098 224.019C129.098 222.076 128.112 220.375 126.665 218.938C72.6053 161.602 5.50135 129.464 -74.5498 122.546L-74.6357 122.539L-74.722 122.539C-76.3072 122.539 -77.7842 122.936 -79.0458 123.826C-80.2984 124.709 -81.1921 125.975 -81.7984 127.472L-81.8259 127.54L-81.8483 127.61C-92.3522 160.215 -97.6128 192.353 -97.6128 224.019C-97.6128 258.124 -92.3573 290.28 -81.8332 320.472L-81.817 320.519L-81.7984 320.565C-81.1921 322.062 -80.2983 323.328 -79.0458 324.212C-77.7842 325.102 -76.3072 325.499 -74.722 325.499L-74.6375 325.499L-74.5533 325.491C-39.5287 322.526 -6.97837 314.37 23.0832 301.009L23.1202 300.992L23.1565 300.975C25.6934 299.722 29.9889 298.981 36.3099 298.971C60.9865 302.392 84.921 308.245 108.116 316.529C109.618 317.117 111.161 317.335 112.655 316.966C114.18 316.59 115.416 315.661 116.38 314.392C117.287 313.198 117.899 311.892 118.077 310.486C118.257 309.063 117.974 307.681 117.318 306.384Z" stroke="url(#paint2_linear_18053_73008)" stroke-width="4"/>
</g>
<g opacity="0.3">
<path d="M479.545 -141.371C479.545 -142.374 478.554 -143.878 476.573 -145.884C423.577 -171.961 367.857 -185 309.412 -185C250.968 -185 195.247 -171.961 142.251 -145.884C141.756 -145.383 140.765 -143.878 139.279 -141.371V-120.309C139.279 -55.1158 154.138 5.56369 183.856 61.7298C214.068 117.394 254.93 162.779 306.44 197.883C308.917 198.886 310.898 198.886 312.384 197.883C363.894 162.779 404.756 117.394 434.969 61.7298C465.182 5.56369 480.288 -55.1158 480.288 -120.309C480.288 -129.837 480.04 -136.858 479.545 -141.371ZM305.697 107.616C295.792 98.5888 284.895 86.5533 273.008 71.5088C271.027 69.0013 268.551 68.4998 265.579 70.0043C254.187 79.5325 240.814 88.8099 225.46 97.8366C223.479 98.8396 221.498 98.5888 219.517 97.0844C217.535 95.58 217.04 93.574 218.031 91.0666C226.451 67.4969 232.394 43.1749 235.861 18.1008C235.861 11.5815 235.118 6.8174 233.632 3.80849C220.26 -26.2805 212.087 -58.8769 209.115 -93.9808C209.115 -96.4882 210.354 -98.2434 212.83 -99.2463C243.043 -109.777 275.237 -115.043 309.412 -115.043C341.111 -115.043 373.305 -109.777 405.994 -99.2463C408.471 -98.2434 409.709 -96.4882 409.709 -93.9808C402.775 -13.7434 370.581 53.4553 313.127 107.616C310.65 110.123 308.174 110.123 305.697 107.616Z" fill="white"/>
<path d="M140.02 588.371C140.02 589.374 141.011 590.878 142.992 592.884C195.988 618.961 251.709 632 310.153 632C368.597 632 424.318 618.961 477.314 592.884C477.809 592.383 478.8 590.878 480.286 588.371L480.286 567.309C480.286 502.116 465.427 441.436 435.71 385.27C405.497 329.606 364.635 284.221 313.125 249.117C310.648 248.114 308.667 248.114 307.181 249.117C255.671 284.221 214.809 329.606 184.596 385.27C154.384 441.436 139.277 502.116 139.277 567.309C139.277 576.837 139.525 583.858 140.02 588.371ZM313.868 339.384C323.774 348.411 334.67 360.447 346.557 375.491C348.538 377.999 351.015 378.5 353.986 376.996C365.378 367.468 378.751 358.19 394.105 349.163C396.086 348.16 398.067 348.411 400.049 349.916C402.03 351.42 402.525 353.426 401.534 355.933C393.114 379.503 387.171 403.825 383.704 428.899C383.704 435.419 384.447 440.183 385.933 443.192C399.306 473.28 407.478 505.877 410.45 540.981C410.45 543.488 409.211 545.243 406.735 546.246C376.522 556.777 344.328 562.043 310.153 562.043C278.454 562.043 246.26 556.777 213.571 546.246C211.095 545.243 209.856 543.488 209.856 540.981C216.79 460.743 248.984 393.545 306.438 339.384C308.915 336.877 311.391 336.877 313.868 339.384Z" fill="white"/>
<path d="M-108.371 50.1869C-109.374 50.1869 -110.878 51.1775 -112.884 53.1587C-138.961 106.155 -152 161.875 -152 220.32C-152 278.764 -138.961 334.485 -112.884 387.481C-112.383 387.976 -110.878 388.967 -108.371 390.453L-87.3086 390.453C-22.1158 390.453 38.5637 375.594 94.7298 345.876C150.394 315.663 195.779 274.802 230.883 223.292C231.886 220.815 231.886 218.834 230.883 217.348C195.779 165.838 150.394 124.976 94.7298 94.7632C38.5637 64.5503 -22.1158 49.444 -87.3087 49.444C-96.8368 49.444 -103.858 49.6916 -108.371 50.1869ZM140.616 224.034C131.589 233.94 119.553 244.837 104.509 256.724C102.001 258.705 101.5 261.181 103.004 264.153C112.532 275.545 121.81 288.918 130.837 304.272C131.84 306.253 131.589 308.234 130.084 310.215C128.58 312.196 126.574 312.692 124.067 311.701C100.497 303.281 76.1749 297.338 51.1007 293.871C44.5815 293.871 39.8174 294.614 36.8085 296.099C6.71949 309.472 -25.8769 317.645 -60.9808 320.616C-63.4882 320.616 -65.2434 319.378 -66.2463 316.902C-76.7775 286.689 -82.0431 254.495 -82.0431 220.32C-82.0431 188.621 -76.7775 156.427 -66.2464 123.738C-65.2434 121.261 -63.4882 120.023 -60.9808 120.023C19.2566 126.957 86.4553 159.151 140.616 216.605C143.123 219.082 143.123 221.558 140.616 224.034Z" fill="white"/>
</g>
</g>
</g>
<defs>
<linearGradient id="paint0_linear_18053_73008" x1="293.022" y1="-178" x2="293.022" y2="202.511" gradientUnits="userSpaceOnUse">
<stop offset="0.622917" stop-color="white"/>
<stop offset="1" stop-color="white" stop-opacity="0"/>
</linearGradient>
<linearGradient id="paint1_linear_18053_73008" x1="293.022" y1="632.347" x2="293.022" y2="251.836" gradientUnits="userSpaceOnUse">
<stop offset="0.622917" stop-color="white"/>
<stop offset="1" stop-color="white" stop-opacity="0"/>
</linearGradient>
<linearGradient id="paint2_linear_18053_73008" x1="-165" y1="223.65" x2="215.511" y2="223.65" gradientUnits="userSpaceOnUse">
<stop offset="0.622917" stop-color="white"/>
<stop offset="1" stop-color="white" stop-opacity="0"/>
</linearGradient>
<clipPath id="clip0_18053_73008">
<rect width="1640" height="448" fill="white"/>
</clipPath>
</defs>
</svg>
