<svg width="1640" height="448" viewBox="0 0 1640 448" fill="none" xmlns="http://www.w3.org/2000/svg">
<g clip-path="url(#clip0_18053_72989)">
<rect width="1640" height="448" fill="#B7B7B7"/>
<g opacity="0.3">
<circle opacity="0.2" cx="309.022" cy="106.023" r="291.523" stroke="white" stroke-width="3"/>
<path opacity="0.6" d="M653.5 106C653.5 292.394 502.174 443.5 315.5 443.5C128.825 443.5 -22.5002 292.394 -22.5002 106C-22.5002 -80.394 128.825 -231.5 315.5 -231.5C502.174 -231.5 653.5 -80.394 653.5 106Z" stroke="white" stroke-width="3"/>
<circle opacity="0.6" cx="292.685" cy="89.9137" r="192.006" stroke="white" stroke-width="3"/>
<circle opacity="0.2" cx="292.685" cy="89.9139" r="475.814" stroke="white" stroke-width="3"/>
<path opacity="0.6" d="M818.5 111C818.5 390.183 592.625 616.5 314 616.5C35.3751 616.5 -190.5 390.183 -190.5 111C-190.5 -168.183 35.3751 -394.5 314 -394.5C592.625 -394.5 818.5 -168.183 818.5 111Z" stroke="white" stroke-width="3"/>
<path opacity="0.4" d="M635.779 72.3778C635.795 72.1922 635.633 71.8982 635.294 71.4961C625.802 65.8433 615.601 62.5616 604.689 61.651C593.778 60.7403 583.173 62.2856 572.876 66.2868C572.776 66.3719 572.568 66.6349 572.252 67.0759L571.926 70.9746C570.919 83.0421 572.756 94.5056 577.436 105.365C582.217 116.14 589.145 125.177 598.22 132.478C598.666 132.702 599.036 132.733 599.329 132.57C609.488 126.875 617.818 119.111 624.319 109.278C630.828 99.3522 634.585 88.3556 635.592 76.2881C635.74 74.5244 635.802 73.221 635.779 72.3778ZM599.475 115.757C597.765 113.932 595.917 111.534 593.93 108.564C593.599 108.069 593.144 107.938 592.566 108.17C590.292 109.756 587.652 111.265 584.646 112.697C584.261 112.852 583.895 112.775 583.548 112.465C583.201 112.156 583.14 111.777 583.364 111.328C585.3 107.096 586.785 102.687 587.82 98.0996C587.921 96.8929 587.855 95.9995 587.624 95.4194C585.593 89.6414 584.57 83.4803 584.558 76.9362C584.597 76.472 584.855 76.1664 585.333 76.0194C591.136 74.5408 597.228 74.0677 603.609 74.6003C609.527 75.0942 615.456 76.5705 621.396 79.0292C621.843 79.2534 622.047 79.5976 622.009 80.0618C619.474 94.806 612.426 106.743 600.862 115.873C600.361 116.299 599.899 116.26 599.475 115.757Z" fill="white"/>
<path opacity="0.4" d="M696.729 404.097C696.861 403.967 696.93 403.638 696.935 403.112C693.417 392.64 687.815 383.504 680.131 375.705C672.446 367.905 663.394 362.169 652.975 358.496C652.844 358.495 652.514 358.559 651.987 358.688L649.2 361.434C640.574 369.933 634.499 379.826 630.976 391.114C627.583 402.403 626.951 413.773 629.079 425.223C629.272 425.684 629.533 425.949 629.861 426.016C641.279 428.314 652.657 427.851 663.994 424.626C675.399 421.336 685.414 415.441 694.04 406.942C695.3 405.7 696.197 404.752 696.729 404.097ZM640.925 413.356C640.817 410.858 640.977 407.834 641.404 404.287C641.476 403.695 641.216 403.3 640.627 403.099C637.868 402.821 634.882 402.246 631.669 401.374C631.276 401.24 631.048 400.943 630.987 400.482C630.925 400.022 631.126 399.694 631.588 399.499C635.813 397.55 639.813 395.173 643.586 392.367C644.449 391.517 644.982 390.797 645.184 390.206C647.407 384.499 650.646 379.159 654.9 374.186C655.231 373.859 655.626 373.795 656.085 373.995C661.451 376.654 666.381 380.264 670.874 384.825C675.042 389.055 678.579 394.038 681.484 399.773C681.677 400.235 681.607 400.629 681.276 400.956C669.747 410.491 656.623 414.955 641.902 414.348C641.245 414.344 640.919 414.014 640.925 413.356Z" fill="white"/>
<path opacity="0.4" d="M31.0599 324.321C31.1129 324.413 31.2841 324.498 31.5734 324.576C37.8521 324.138 43.6928 322.359 49.0953 319.24C54.4979 316.12 58.9587 311.952 62.4778 306.733C62.4971 306.661 62.509 306.47 62.5137 306.161L61.3992 304.231C57.9496 298.256 53.3653 293.488 47.6463 289.926C41.9081 286.437 35.7294 284.458 29.1104 283.99C28.8284 284.03 28.6452 284.136 28.561 284.307C25.6569 290.274 24.2811 296.614 24.4337 303.328C24.6128 310.088 26.4271 316.455 29.8767 322.43C30.3809 323.304 30.7753 323.934 31.0599 324.321ZM33.9554 292.223C35.3487 292.522 36.9928 293.044 38.8877 293.788C39.2035 293.912 39.459 293.826 39.6541 293.529C40.2029 292.048 40.9482 290.484 41.8899 288.837C42.02 288.64 42.2164 288.557 42.4791 288.589C42.7419 288.621 42.8938 288.779 42.9349 289.061C43.4037 291.671 44.1413 294.217 45.1475 296.7C45.4925 297.298 45.8133 297.695 46.1098 297.891C48.9381 299.935 51.4183 302.486 53.5505 305.545C53.6832 305.775 53.6616 306.002 53.4858 306.226C51.2502 308.803 48.5528 311.004 45.3937 312.828C42.4635 314.52 39.2089 315.755 35.6299 316.535C35.3479 316.575 35.1405 316.48 35.0079 316.251C31.4032 308.527 30.8235 300.65 33.2686 292.62C33.3649 292.258 33.5938 292.126 33.9554 292.223Z" fill="white"/>
<path opacity="0.8" d="M341.99 91.5506C341.985 91.2621 341.687 90.8343 341.096 90.2672C325.426 83.0279 309.022 79.5517 291.886 79.8385C274.749 80.1253 258.476 84.1484 243.068 91.9077C242.925 92.0544 242.642 92.4919 242.219 93.2203L242.325 99.2774C242.652 118.026 247.314 135.403 256.309 151.41C265.448 167.27 277.657 180.121 292.937 189.963C293.668 190.24 294.249 190.23 294.68 189.934C309.607 179.586 321.36 166.334 329.94 150.178C338.516 133.877 342.641 116.352 342.314 97.6041C342.266 94.8639 342.158 92.8461 341.99 91.5506ZM292.266 164.008C289.316 161.46 286.06 158.053 282.499 153.785C281.906 153.073 281.177 152.941 280.314 153.388C277.021 156.184 273.147 158.918 268.69 161.589C268.114 161.887 267.532 161.825 266.943 161.402C266.355 160.979 266.2 160.405 266.477 159.679C268.828 152.859 270.449 145.836 271.339 138.608C271.306 136.733 271.065 135.366 270.614 134.508C266.542 125.921 263.982 116.587 262.934 106.506C262.922 105.785 263.276 105.274 263.997 104.974C272.803 101.797 282.216 100.125 292.237 99.9569C301.531 99.8013 310.998 101.158 320.635 104.026C321.367 104.302 321.739 104.801 321.751 105.522C320.121 128.631 311.019 148.114 294.444 163.971C293.731 164.705 293.005 164.717 292.266 164.008Z" fill="white"/>
<path opacity="0.4" d="M341.49 91.5589L341.491 91.5868L341.494 91.6145C341.658 92.8808 341.766 94.8753 341.814 97.6124C342.14 116.278 338.034 133.719 329.497 149.944C320.955 166.03 309.256 179.22 294.396 189.522C294.164 189.681 293.79 189.741 293.162 189.513C277.971 179.719 265.834 166.937 256.744 151.163C247.791 135.231 243.151 117.935 242.825 99.2691L242.721 93.3517C242.9 93.0472 243.049 92.8031 243.169 92.6176C243.267 92.4651 243.337 92.3669 243.381 92.3098C258.697 84.6132 274.866 80.6234 291.894 80.3384C308.927 80.0533 325.231 83.5017 340.81 90.6855C341.061 90.9316 341.239 91.1355 341.353 91.299C341.47 91.4672 341.488 91.5472 341.49 91.5581C341.49 91.5594 341.49 91.5597 341.49 91.5589ZM268.92 162.033L268.934 162.026L268.947 162.018C273.402 159.348 277.285 156.611 280.592 153.808C280.934 153.64 281.203 153.605 281.419 153.644C281.641 153.684 281.875 153.816 282.116 154.105C285.684 158.381 288.955 161.808 291.93 164.378C292.352 164.781 292.836 165.039 293.373 165.03C293.911 165.021 294.387 164.745 294.796 164.327C311.457 148.384 320.611 128.786 322.25 105.557L322.251 105.535L322.251 105.513C322.243 105.065 322.122 104.655 321.864 104.308C321.607 103.965 321.244 103.721 320.812 103.558L320.795 103.552L320.778 103.547C311.095 100.665 301.578 99.3005 292.228 99.4569C282.156 99.6255 272.688 101.307 263.827 104.503L263.815 104.507L263.804 104.512C263.378 104.69 263.023 104.945 262.779 105.297C262.533 105.652 262.426 106.067 262.434 106.515L262.435 106.536L262.437 106.558C263.49 116.691 266.064 126.08 270.162 134.722L270.167 134.732L270.171 134.741C270.563 135.486 270.804 136.743 270.839 138.581C269.952 145.76 268.341 152.735 266.007 159.508C265.845 159.937 265.791 160.37 265.903 160.784C266.017 161.205 266.285 161.545 266.652 161.808C267 162.058 267.373 162.221 267.768 162.263C268.167 162.306 268.555 162.222 268.92 162.033Z" stroke="white"/>
</g>
</g>
<defs>
<clipPath id="clip0_18053_72989">
<rect width="1640" height="448" fill="white"/>
</clipPath>
</defs>
</svg>
