<svg width="367" height="73" viewBox="0 0 367 73" fill="none" xmlns="http://www.w3.org/2000/svg">
<path d="M71 62H0V72H71V62Z" fill="#F2F2F3"/>
<path d="M71 22C71 26.7276 70.0822 31.4087 68.2978 35.7764C66.5134 40.144 63.899 44.1125 60.6027 47.4562C57.3054 50.7989 53.392 53.4502 49.085 55.2598C44.778 57.0693 40.162 58 35.5 58C30.838 58 26.222 57.0693 21.915 55.2598C17.608 53.4502 13.6946 50.7989 10.3973 47.4562C7.10104 44.1125 4.48657 40.144 2.70218 35.7764C0.91778 31.4087 0 26.7276 0 22H71Z" fill="#F2F2F3"/>
<path d="M116.506 72.0038C111.71 72.0038 107.381 70.9255 103.519 68.7689C99.658 66.5509 96.606 63.562 94.363 59.8034C92.121 55.9833 91 51.7307 91 47.0485C91 42.3039 92.121 38.0512 94.363 34.2926C96.606 30.534 99.658 27.5452 103.519 25.3271C107.381 23.109 111.71 22 116.506 22C120.367 22 124.042 22.739 127.53 24.2181C131.08 25.6971 134.132 27.8229 136.686 30.5955L128.838 38.822C127.032 36.85 125.132 35.4017 123.139 34.4781C121.208 33.4921 119.091 32.9991 116.786 32.9991C114.295 32.9991 112.052 33.6151 110.059 34.8471C108.128 36.0802 106.571 37.7437 105.388 39.8388C104.267 41.9339 103.706 44.3364 103.706 47.0485C103.706 49.6366 104.267 52.0084 105.388 54.165C106.571 56.26 108.191 57.9236 110.246 59.1566C112.302 60.3272 114.575 60.9124 117.066 60.9124C119.246 60.9124 121.27 60.4809 123.139 59.6179C125.07 58.6944 126.907 57.3383 128.651 55.5518L136.312 63.5005C133.821 66.1501 130.831 68.2452 127.343 69.7857C123.855 71.2647 120.243 72.0038 116.506 72.0038Z" fill="#F2F2F3"/>
<path d="M165.329 72.0038C160.471 72.0038 156.08 70.8947 152.156 68.6767C148.232 66.4576 145.117 63.4698 142.813 59.7111C140.508 55.9525 139.356 51.7307 139.356 47.0485C139.356 42.3654 140.477 38.1445 142.719 34.3849C145.024 30.5648 148.138 27.5452 152.062 25.3271C156.049 23.109 160.471 22 165.329 22C170.187 22 174.578 23.109 178.502 25.3271C182.489 27.5452 185.603 30.5648 187.845 34.3849C190.15 38.1445 191.302 42.3654 191.302 47.0485C191.302 51.7307 190.15 55.9525 187.845 59.7111C185.603 63.4698 182.52 66.4576 178.596 68.6767C174.672 70.8947 170.249 72.0038 165.329 72.0038ZM165.329 61.0047C167.883 61.0047 170.156 60.3887 172.149 59.1566C174.205 57.9236 175.824 56.26 177.007 54.165C178.253 52.0084 178.876 49.6366 178.876 47.0485C178.876 44.3989 178.253 42.0261 177.007 39.931C175.824 37.836 174.205 36.1724 172.149 34.9404C170.156 33.6459 167.883 32.9991 165.329 32.9991C162.838 32.9991 160.564 33.6459 158.509 34.9404C156.453 36.1724 154.834 37.836 153.651 39.931C152.467 42.0261 151.875 44.3989 151.875 47.0485C151.875 49.6366 152.467 52.0084 153.651 54.165C154.834 56.26 156.453 57.9236 158.509 59.1566C160.564 60.3887 162.838 61.0047 165.329 61.0047Z" fill="#F2F2F3"/>
<path fill-rule="evenodd" clip-rule="evenodd" d="M229.234 32.9247H208.523V72.0808H195.724V17.354C195.724 11.727 197.314 7.44766 200.484 4.50558C203.664 1.50178 208.244 0 214.214 0C215.524 0 216.864 0.0719487 218.234 0.195393C219.604 0.329124 220.794 0.54505 221.784 0.863947V11.8916C220.604 11.6344 219.574 11.4391 218.704 11.3157C217.834 11.1922 216.864 11.12 215.804 11.12C213.374 11.12 211.543 11.6654 210.293 12.7558C209.113 13.7742 208.523 15.3995 208.523 17.6421V22H229.234V17.354C229.234 11.727 230.814 7.44766 233.994 4.50558C237.174 1.50178 241.754 0 247.734 0C249.034 0 250.374 0.0719487 251.744 0.195393C253.114 0.329124 254.303 0.54505 255.293 0.863947V11.8916C254.113 11.6344 253.084 11.4391 252.214 11.3157C251.344 11.1922 250.373 11.12 249.313 11.12C246.883 11.12 245.054 11.6654 243.804 12.7558C242.624 13.7742 242.034 15.3995 242.034 17.6421V22H255.293V32.9247H242.034V72.0808H229.234V32.9247Z" fill="#F2F2F3"/>
<path d="M282.991 72C278.146 72 273.737 70.889 269.763 68.667C265.85 66.444 262.745 63.4509 260.447 59.6856C258.15 55.9203 257 51.6909 257 47.0005C257 42.3091 258.087 38.0807 260.26 34.3144C262.497 30.5491 265.508 27.556 269.297 25.333C273.085 23.111 277.309 22 281.966 22C286.624 22 290.754 23.1418 294.356 25.4264C297.957 27.71 300.783 30.7966 302.833 34.6851C304.944 38.5746 306 42.9878 306 47.9257V51.2597H270.042C270.601 53.1726 271.502 54.9017 272.744 56.445C274.048 57.9873 275.632 59.1917 277.494 60.0552C279.42 60.9198 281.47 61.3521 283.643 61.3521C285.817 61.3521 287.804 61.0122 289.605 60.3335C291.468 59.6548 293.052 58.6978 294.356 57.4626L302.74 65.0557C299.759 67.4626 296.685 69.2225 293.517 70.3335C290.412 71.4445 286.904 72 282.991 72ZM269.855 42.1848H293.425C292.99 40.2719 292.182 38.6054 291.002 37.1853C289.884 35.7037 288.518 34.5619 286.904 33.7589C285.351 32.8954 283.612 32.4631 281.687 32.4631C279.7 32.4631 277.898 32.8646 276.284 33.6665C274.669 34.4694 273.302 35.6112 272.185 37.0929C271.129 38.512 270.353 40.2103 269.855 42.1848Z" fill="#F2F2F3"/>
<path d="M335.923 71.9996C331.065 71.9996 326.643 70.8886 322.657 68.6667C318.733 66.4437 315.618 63.4506 313.314 59.6853C311.009 55.9201 309.857 51.6907 309.857 47.0003C309.857 42.3089 310.947 38.0806 313.127 34.3143C315.369 30.5491 318.39 27.556 322.19 25.333C325.989 23.111 330.224 22 334.896 22C339.567 22 343.709 23.1418 347.322 25.4264C350.934 27.71 353.768 30.7965 355.823 34.685C357.941 38.5745 359 42.9876 359 47.9255V51.2594H322.937C323.498 53.1724 324.401 54.9015 325.646 56.4447C326.954 57.987 328.543 59.1914 330.411 60.055C332.342 60.9195 334.397 61.3518 336.577 61.3518C338.757 61.3518 340.75 61.0119 342.557 60.3332C344.425 59.6545 346.014 58.6975 347.322 57.4623L355.73 65.0554C352.74 67.4623 349.657 69.2221 346.481 70.3331C343.366 71.4441 339.847 71.9996 335.923 71.9996ZM322.75 42.1847H346.387C345.951 40.2718 345.142 38.6053 343.958 37.1852C342.837 35.7036 341.467 34.5618 339.847 33.7588C338.29 32.8953 336.546 32.463 334.615 32.463C332.622 32.463 330.816 32.8645 329.197 33.6664C327.577 34.4693 326.207 35.6111 325.086 37.0928C324.027 38.5119 323.248 40.2101 322.75 42.1847Z" fill="#F2F2F3"/>
</svg>
