<svg width="367" height="71" viewBox="0 0 367 71" fill="none" xmlns="http://www.w3.org/2000/svg">
<path d="M70 21C70 25.6031 69.0952 30.1609 67.3359 34.4135C65.5766 38.6661 62.999 42.5301 59.7491 45.7858C56.4982 49.0405 52.64 51.6219 48.3937 53.3838C44.1474 55.1457 39.5963 56.0519 35 56.0519C30.4037 56.0519 25.8526 55.1457 21.6063 53.3838C17.36 51.6219 13.5018 49.0405 10.2509 45.7858C7.00103 42.5301 4.42338 38.6661 2.66412 34.4135C0.904853 30.1609 0 25.6031 0 21H70Z" fill="#FF006B"/>
<path d="M69.6708 60H0V70H69.6708V60Z" fill="#FF006B"/>
<path d="M124.506 70.0038C119.71 70.0038 115.381 68.9166 111.519 66.7423C107.658 64.5059 104.606 61.4924 102.363 57.7029C100.121 53.8512 99 49.5636 99 44.8428C99 40.0591 100.121 35.7714 102.363 31.9818C104.606 28.1922 107.658 25.1788 111.519 22.9424C115.381 20.7061 119.71 19.5879 124.506 19.5879C128.367 19.5879 132.042 20.333 135.53 21.8242C139.08 23.3155 142.132 25.4588 144.686 28.2542L136.838 36.5485C135.032 34.5602 133.132 33.1 131.139 32.1689C129.208 31.1747 127.091 30.6776 124.786 30.6776C122.295 30.6776 120.052 31.2987 118.059 32.5409C116.128 33.7841 114.571 35.4614 113.388 37.5737C112.267 39.686 111.706 42.1084 111.706 44.8428C111.706 47.4522 112.267 49.8436 113.388 52.018C114.571 54.1303 116.191 55.8076 118.246 57.0508C120.302 58.2309 122.575 58.821 125.066 58.821C127.246 58.821 129.27 58.386 131.139 57.5158C133.07 56.5847 134.907 55.2175 136.651 53.4162L144.312 61.4304C141.821 64.1019 138.831 66.2142 135.343 67.7674C131.855 69.2587 128.243 70.0038 124.506 70.0038Z" fill="#2D3F50"/>
<path d="M173.329 70.0038C168.471 70.0038 164.08 68.8856 160.156 66.6493C156.232 64.4119 153.117 61.3994 150.813 57.6098C148.508 53.8202 147.356 49.5636 147.356 44.8428C147.356 40.1211 148.477 35.8654 150.719 32.0748C153.024 28.2232 156.138 25.1788 160.062 22.9424C164.049 20.7061 168.471 19.5879 173.329 19.5879C178.187 19.5879 182.578 20.7061 186.502 22.9424C190.489 25.1788 193.603 28.2232 195.845 32.0748C198.15 35.8654 199.302 40.1211 199.302 44.8428C199.302 49.5636 198.15 53.8202 195.845 57.6098C193.603 61.3994 190.52 64.4119 186.596 66.6493C182.672 68.8856 178.249 70.0038 173.329 70.0038ZM173.329 58.914C175.883 58.914 178.156 58.2929 180.149 57.0508C182.205 55.8076 183.824 54.1303 185.007 52.018C186.253 49.8436 186.876 47.4522 186.876 44.8428C186.876 42.1714 186.253 39.779 185.007 37.6667C183.824 35.5544 182.205 33.8771 180.149 32.6349C178.156 31.3297 175.883 30.6776 173.329 30.6776C170.838 30.6776 168.564 31.3297 166.509 32.6349C164.453 33.8771 162.834 35.5544 161.651 37.6667C160.467 39.779 159.875 42.1714 159.875 44.8428C159.875 47.4522 160.467 49.8436 161.651 52.018C162.834 54.1303 164.453 55.8076 166.509 57.0508C168.564 58.2929 170.838 58.914 173.329 58.914Z" fill="#2D3F50"/>
<path fill-rule="evenodd" clip-rule="evenodd" d="M237.234 32.1549H216.523V70.0808H203.724V16.8725C203.724 11.4017 205.314 7.24102 208.484 4.38057C211.664 1.46011 216.244 0 222.214 0C223.524 0 224.864 0.0699524 226.234 0.189971C227.604 0.319991 228.794 0.529927 229.784 0.839975V11.5616C228.604 11.3116 227.574 11.1217 226.704 11.0017C225.834 10.8817 224.864 10.8115 223.804 10.8115C221.374 10.8115 219.543 11.3417 218.293 12.4018C217.113 13.392 216.523 14.9722 216.523 17.1526V21.5334H237.234V16.8725C237.234 11.4017 238.814 7.24102 241.994 4.38057C245.174 1.46011 249.754 0 255.734 0C257.034 0 258.374 0.0699524 259.744 0.189971C261.114 0.319991 262.303 0.529927 263.293 0.839975V11.5616C262.113 11.3116 261.084 11.1217 260.214 11.0017C259.344 10.8817 258.373 10.8115 257.313 10.8115C254.883 10.8115 253.054 11.3417 251.804 12.4018C250.624 13.392 250.034 14.9722 250.034 17.1526V21.5334H263.293V32.1549H250.034V70.0808H237.234V32.1549Z" fill="#2D3F50"/>
<path d="M290.816 70.9996C285.957 70.9996 281.535 69.8815 277.549 67.6451C273.625 65.4078 270.511 62.3953 268.206 58.6057C265.902 54.8161 264.749 50.5594 264.749 45.8387C264.749 41.117 265.839 36.8613 268.019 33.0707C270.262 29.2811 273.282 26.2686 277.082 24.0313C280.881 21.7949 285.117 20.6768 289.788 20.6768C294.459 20.6768 298.601 21.8259 302.214 24.1253C305.826 26.4237 308.66 29.5301 310.716 33.4438C312.833 37.3584 313.892 41.8001 313.892 46.7698V50.1254H277.829C278.39 52.0507 279.293 53.7909 280.539 55.3442C281.847 56.8964 283.435 58.1086 285.303 58.9777C287.234 59.8479 289.29 60.2829 291.47 60.2829C293.65 60.2829 295.643 59.9409 297.449 59.2578C299.318 58.5747 300.906 57.6115 302.214 56.3683L310.622 64.0105C307.633 66.4329 304.55 68.2042 301.373 69.3224C298.259 70.4405 294.74 70.9996 290.816 70.9996ZM277.642 40.9919H301.28C300.844 39.0666 300.034 37.3894 298.85 35.9601C297.729 34.4689 296.359 33.3197 294.74 32.5116C293.183 31.6425 291.439 31.2074 289.508 31.2074C287.515 31.2074 285.708 31.6115 284.089 32.4186C282.47 33.2267 281.099 34.3759 279.978 35.8671C278.919 37.2954 278.141 39.0046 277.642 40.9919Z" fill="#2D3F50"/>
<path d="M343.923 70.9996C339.065 70.9996 334.643 69.8815 330.657 67.6451C326.733 65.4078 323.618 62.3953 321.314 58.6057C319.009 54.8161 317.857 50.5594 317.857 45.8387C317.857 41.117 318.947 36.8613 321.127 33.0707C323.369 29.2811 326.39 26.2686 330.19 24.0313C333.989 21.7949 338.224 20.6768 342.896 20.6768C347.567 20.6768 351.709 21.8259 355.322 24.1253C358.934 26.4237 361.768 29.5301 363.823 33.4438C365.941 37.3584 367 41.8001 367 46.7698V50.1254H330.937C331.498 52.0507 332.401 53.7909 333.646 55.3442C334.954 56.8964 336.543 58.1086 338.411 58.9777C340.342 59.8479 342.397 60.2829 344.577 60.2829C346.757 60.2829 348.75 59.9409 350.557 59.2578C352.425 58.5747 354.014 57.6115 355.322 56.3683L363.73 64.0105C360.74 66.4329 357.657 68.2042 354.481 69.3224C351.366 70.4405 347.847 70.9996 343.923 70.9996ZM330.75 40.9919H354.387C353.951 39.0666 353.142 37.3894 351.958 35.9601C350.837 34.4689 349.467 33.3197 347.847 32.5116C346.29 31.6425 344.546 31.2074 342.615 31.2074C340.622 31.2074 338.816 31.6115 337.197 32.4186C335.577 33.2267 334.207 34.3759 333.086 35.8671C332.027 37.2954 331.248 39.0046 330.75 40.9919Z" fill="#2D3F50"/>
</svg>
