<svg width="150" height="48" viewBox="0 0 150 48" fill="none" xmlns="http://www.w3.org/2000/svg">
<path d="M38.9577 9.94694C38.9577 9.8542 38.8664 9.71509 38.6836 9.5296C33.7953 7.11826 28.6558 5.9126 23.265 5.9126C17.8742 5.9126 12.7346 7.11826 7.84637 9.5296C7.80069 9.57597 7.70932 9.71509 7.57227 9.94694V11.8946C7.57227 17.9229 8.94281 23.5339 11.6839 28.7275C14.4707 33.8748 18.2397 38.0714 22.9909 41.3175C23.2193 41.4102 23.4021 41.4102 23.5391 41.3175C28.2903 38.0714 32.0593 33.8748 34.8461 28.7275C37.6329 23.5339 39.0263 17.9229 39.0263 11.8946C39.0263 11.0135 39.0034 10.3643 38.9577 9.94694ZM22.9224 32.9705C22.0087 32.1359 21.0036 31.0229 19.9072 29.6318C19.7244 29.3999 19.496 29.3535 19.2219 29.4927C18.1711 30.3737 16.9377 31.2316 15.5214 32.0663C15.3387 32.159 15.1559 32.1359 14.9732 31.9967C14.7905 31.8576 14.7448 31.6721 14.8361 31.4403C15.6128 29.2608 16.161 27.0118 16.4808 24.6932C16.4808 24.0903 16.4123 23.6498 16.2752 23.3716C15.0417 20.5893 14.2879 17.5751 14.0138 14.3291C14.0138 14.0972 14.128 13.9349 14.3565 13.8422C17.1432 12.8684 20.1127 12.3815 23.265 12.3815C26.1888 12.3815 29.1583 12.8684 32.1735 13.8422C32.402 13.9349 32.5162 14.0972 32.5162 14.3291C31.8766 21.7486 28.9071 27.9624 23.6076 32.9705C23.3792 33.2024 23.1508 33.2024 22.9224 32.9705Z" fill="#00BEDF"/>
<path d="M55.9182 14.1899V31.3387H68.4175V28.3499H59.2717V14.1899H55.9182Z" fill="#30363E"/>
<path d="M82.9737 26.3656C83.4564 21.3924 80.8397 18.8936 76.6478 18.8936C72.583 18.8936 69.9917 21.5394 69.9917 25.2142C69.9917 29.0849 72.5576 31.6572 76.8765 31.6572C78.7819 31.6572 80.9413 31.0202 82.2624 29.6973L80.2808 27.811C79.5694 28.5214 78.0705 28.9379 76.9273 28.9379C74.7424 28.9379 73.396 27.86 73.1927 26.3656H82.9737ZM73.2435 23.8913C73.7008 22.3234 75.0727 21.5394 76.7494 21.5394C78.5278 21.5394 79.7981 22.3234 80.0013 23.8913H73.2435Z" fill="#30363E"/>
<path d="M93.9489 19.5551C93.0851 18.9916 92.0689 18.8691 91.0781 18.8691C87.5722 18.8691 84.7269 21.2209 84.7269 24.9937C84.7269 28.7664 87.1657 31.0692 91.0781 31.0692C92.6279 31.0692 94.2538 31.8287 94.2538 33.4946C94.2538 35.1604 92.8565 36.0914 91.0781 36.0914C89.2998 36.0914 87.8009 35.0625 87.8009 33.4946H84.7269C84.7269 36.7528 87.4452 38.8842 91.0781 38.8842C94.7111 38.8842 97.3532 36.8263 97.3532 33.4946C97.3532 31.9512 96.8451 30.5058 94.7619 29.5014C96.8197 28.5949 97.404 26.4881 97.404 24.9937C97.404 23.6708 97.0484 22.4704 96.083 21.4169L97.4802 19.702L95.1938 18.0362L93.9489 19.5551ZM91.0781 21.5884C92.8565 21.5884 94.33 22.9113 94.33 24.9937C94.33 27.076 92.8565 28.3499 91.0781 28.3499C89.2744 28.3499 87.8009 27.1005 87.8009 24.9937C87.8009 22.8868 89.2744 21.5884 91.0781 21.5884Z" fill="#30363E"/>
<path d="M109.211 20.927C108.5 19.7265 106.899 18.9671 105.223 18.9671C101.564 18.9426 98.6935 21.1229 98.6935 25.2877C98.6935 29.5258 101.437 31.7307 105.146 31.7062C106.544 31.6817 108.5 30.9957 109.211 29.5748L109.364 31.3387H112.285V19.2611H109.313L109.211 20.927ZM105.502 21.6374C110.38 21.6374 110.38 28.9624 105.502 28.9624C103.444 28.9624 101.793 27.5905 101.793 25.2877C101.793 22.9848 103.444 21.6374 105.502 21.6374Z" fill="#30363E"/>
<path d="M114.91 14.2144V31.3387H117.984V14.2144H114.91Z" fill="#30363E"/>
<path d="M133.114 26.3656C133.597 21.3924 130.98 18.8936 126.788 18.8936C122.723 18.8936 120.132 21.5394 120.132 25.2142C120.132 29.0849 122.698 31.6572 127.017 31.6572C128.922 31.6572 131.082 31.0202 132.403 29.6973L130.421 27.811C129.71 28.5214 128.211 28.9379 127.068 28.9379C124.883 28.9379 123.536 27.86 123.333 26.3656H133.114ZM123.384 23.8913C123.841 22.3234 125.213 21.5394 126.89 21.5394C128.668 21.5394 129.938 22.3234 130.142 23.8913H123.384Z" fill="#30363E"/>
<path d="M135.502 19.2611V31.3387H138.602V24.9692C138.602 22.7398 140.101 21.9069 141.727 21.9069C142.743 21.9069 143.327 22.1764 143.962 22.6908L145.36 20.094C144.674 19.4326 143.429 18.9426 142.133 18.9426C140.863 18.9426 139.567 19.1631 138.602 20.6575L138.373 19.2611H135.502Z" fill="#30363E"/>
</svg>
